<svg version="1" xmlns="http://www.w3.org/2000/svg" width="372" height="372" viewBox="0 0 279.000000 279.000000"><path d="M114.4 2.9c-37 6.6-70 28.2-90.9 59.6C13.4 77.8 7.7 91 3.4 109.7.9 120.1.6 123.5.6 139c-.1 26.2 3.6 41.6 15.1 64.3 5.9 11.5 13.4 22.4 22.2 31.9 9.2 10.1 30.4 26 32 24.1.5-.4 7.2-12.1 15.1-25.8 7.9-13.8 14.9-25.8 15.6-26.9 1.1-1.7.7-2.3-4.5-6.1-24.3-17.9-35.5-46.4-29.5-75.3 3.1-14.8 10.4-28.1 21.3-38.5 6.3-6.1 7.8-6.7 8.7-4 1.7 5.2 3.8 8.4 7.9 12.4l4.5 4.3-3.4 3.6c-4 4.1-5.1 6.3-6 11.1-.4 2-2 5.6-3.7 7.9-6.1 8.4-7.4 15.2-4.2 21.3.9 1.8 3.1 7.3 4.8 12.4 1.8 5 4.2 10.4 5.4 11.9 3 3.8 12.9 11.3 17.9 13.6 3.5 1.6 4.1 2.3 3.7 4.1-.5 2.1-10.8 61.4-13.9 79.7-.8 4.7-1.2 8.8-1 9.1.2.4 3.9 1.5 8.1 2.5 14.5 3.4 49.4 1.9 51-2.2.2-.7-2.7-21.4-6.6-46-4-24.6-7-44.7-6.9-44.9.2-.1 2.8-1.3 5.8-2.8 11.5-5.5 19.7-15 23.3-27.3.8-2.8 2.2-6.5 3-8.1 3.9-7.5 2.9-15.4-2.8-22.3-1.9-2.2-3.7-5.8-4.1-7.8-.9-5.2-3.8-10.6-7.2-13.3l-2.8-2.4 4.8-4.7c2.7-2.6 5.9-7 7.2-10l2.4-5.3 7.8 8c9.3 9.5 13.5 16.3 17.6 28.1 9 26 2.9 54.3-16 74.5-3.4 3.7-8.5 8.2-11.2 10-2.7 1.9-5 3.6-5 3.9 0 .7 30.9 54.3 32 55.4 1.1 1.1 11-5.6 21.5-14.5 23.9-20.3 40.6-50.2 46-82.7 2.1-12.7 1.7-37.5-1-49.7-5.5-26-17.7-49.2-35.8-68.2C218.4 22.1 193 8.4 162.7 3 148.6.5 128.6.4 114.4 2.9zM148 66.7c-2.3.9-5.1 3.5-7 6.6l-1.8 2.8-2.2-3.6c-1.2-1.9-3.4-4.2-4.8-5-2.5-1.3-2-1.4 7.3-1.4 5.5 0 9.3.3 8.5.6z"/></svg>